<svg width="382" height="392" viewBox="0 0 382 392" fill="none" xmlns="http://www.w3.org/2000/svg">
<style>
svg { overflow: visible; }
@keyframes kf_glow2_transform_0 {
  0% {
    animation-timing-function: cubic-bezier(0.5, 0, 0.5, 1);
    transform: translateX(0px) translateY(0px) translate(173.232px, 177.631px) rotate(0.087rad) scaleX(0.2) scaleY(0.2) translate(-173.232px, -177.631px);
  }
  100% {
    transform: translateX(0px) translateY(0px) translate(173.232px, 177.631px) rotate(0rad) scaleX(1) scaleY(1) translate(-173.232px, -177.631px);
  }
}
#glow2 {
  transform-origin: 0 0;
  animation: kf_glow2_transform_0 2s linear 1 both;
}
@keyframes kf_glow_transform_0 {
  0% {
    animation-timing-function: cubic-bezier(0.7, -0.4, 0.4, 1.4);
    transform: translateX(34.835px) translateY(270.248px) translate(34.187px, 24.503px) scaleX(0) scaleY(0) translate(-34.187px, -24.503px) rotate(-0.338rad) scaleX(1) scaleY(1) skewX(0rad);
  }
  40% {
    transform: translateX(34.835px) translateY(270.248px) translate(34.187px, 24.503px) scaleX(1) scaleY(1) translate(-34.187px, -24.503px) rotate(0.169rad) scaleX(1) scaleY(1) skewX(0rad);
  }
  60% {
    animation-timing-function: cubic-bezier(0.7, -0.4, 0.4, 1.4);
    transform: translateX(34.835px) translateY(270.248px) translate(34.187px, 24.503px) scaleX(1) scaleY(1) translate(-34.187px, -24.503px) rotate(0.403rad) scaleX(1) scaleY(1) skewX(0rad);
  }
  100% {
    transform: translateX(34.835px) translateY(270.248px) translate(34.187px, 24.503px) scaleX(0) scaleY(0) translate(-34.187px, -24.503px) rotate(0.715rad) scaleX(1) scaleY(1) skewX(0rad);
  }
}
#glow {
  transform-origin: 0 0;
  animation: kf_glow_transform_0 2s linear 1 both;
}
@keyframes kf_glow_2_transform_0 {
  0% {
    animation-timing-function: cubic-bezier(0.7, -0.4, 0.4, 1.4);
    transform: translateX(307.69px) translateY(8.537px) translate(-27.014px, 32.24px) scaleX(0) scaleY(0) translate(27.014px, -32.24px) rotate(-3.055rad) scaleX(1) scaleY(-1) skewX(0rad);
  }
  40% {
    transform: translateX(307.69px) translateY(8.537px) translate(-27.014px, 32.24px) scaleX(1) scaleY(1) translate(27.014px, -32.24px) rotate(-3.497rad) scaleX(1) scaleY(-1) skewX(0rad);
  }
  60% {
    animation-timing-function: cubic-bezier(0.7, -0.4, 0.4, 1.4);
    transform: translateX(307.69px) translateY(8.537px) translate(-27.014px, 32.24px) scaleX(1) scaleY(1) translate(27.014px, -32.24px) rotate(-3.701rad) scaleX(1) scaleY(-1) skewX(0rad);
  }
  100% {
    transform: translateX(307.69px) translateY(8.537px) translate(-27.014px, 32.24px) scaleX(0) scaleY(0) translate(27.014px, -32.24px) rotate(-3.973rad) scaleX(1) scaleY(-1) skewX(0rad);
  }
}
#glow_2 {
  transform-origin: 0 0;
  animation: kf_glow_2_transform_0 2s linear 1 both;
}
@keyframes kf_glow_3_transform_0 {
  0% {
    animation-timing-function: cubic-bezier(0.7, -0.4, 0.4, 1.4);
    transform: translateX(326.87px) translateY(196.46px) translate(-27.014px, 32.239px) scaleX(0) scaleY(0) translate(27.014px, -32.239px) rotate(-3.055rad) scaleX(1) scaleY(-1) skewX(0rad);
  }
  40% {
    transform: translateX(326.87px) translateY(196.46px) translate(-27.014px, 32.239px) scaleX(1) scaleY(1) translate(27.014px, -32.239px) rotate(-2.470rad) scaleX(1) scaleY(-1) skewX(0rad);
  }
  60% {
    animation-timing-function: cubic-bezier(0.7, -0.4, 0.4, 1.4);
    transform: translateX(326.87px) translateY(196.46px) translate(-27.014px, 32.239px) scaleX(1) scaleY(1) translate(27.014px, -32.239px) rotate(-2.200rad) scaleX(1) scaleY(-1) skewX(0rad);
  }
  100% {
    transform: translateX(326.87px) translateY(196.46px) translate(-27.014px, 32.239px) scaleX(0) scaleY(0) translate(27.014px, -32.239px) rotate(-1.840rad) scaleX(1) scaleY(-1) skewX(0rad);
  }
}
#glow_3 {
  transform-origin: 0 0;
  animation: kf_glow_3_transform_0 2s linear 1 both;
}
@keyframes kf_glow_4_transform_0 {
  0% {
    animation-timing-function: cubic-bezier(0.7, -0.4, 0.4, 1.4);
    transform: translateX(87.564px) translateY(247.887px) translate(10.354px, 15.979px) scaleX(0) scaleY(0) translate(-10.354px, -15.979px) rotate(0.036rad) scaleX(1) scaleY(1) skewX(0rad);
  }
  40% {
    transform: translateX(87.564px) translateY(247.887px) translate(10.354px, 15.979px) scaleX(1) scaleY(1) translate(-10.354px, -15.979px) rotate(-0.445rad) scaleX(1) scaleY(1) skewX(0rad);
  }
  60% {
    animation-timing-function: cubic-bezier(0.7, -0.4, 0.4, 1.4);
    transform: translateX(87.564px) translateY(247.887px) translate(10.354px, 15.979px) scaleX(1) scaleY(1) translate(-10.354px, -15.979px) rotate(-0.667rad) scaleX(1) scaleY(1) skewX(0rad);
  }
  100% {
    transform: translateX(87.564px) translateY(247.887px) translate(10.354px, 15.979px) scaleX(0) scaleY(0) translate(-10.354px, -15.979px) rotate(-0.963rad) scaleX(1) scaleY(1) skewX(0rad);
  }
}
#glow_4 {
  transform-origin: 0 0;
  animation: kf_glow_4_transform_0 2s linear 1 both;
}
@keyframes kf_glow_5_transform_0 {
  0% {
    animation-timing-function: cubic-bezier(0.7, -0.4, 0.4, 1.4);
    transform: translateX(251.049px) translateY(0px) translate(-6.052px, 18.053px) scaleX(0) scaleY(0) translate(6.052px, -18.053px) rotate(2.854rad) scaleX(1) scaleY(-1) skewX(0rad);
  }
  40% {
    transform: translateX(251.049px) translateY(0px) translate(-6.052px, 18.053px) scaleX(1) scaleY(1) translate(6.052px, -18.053px) rotate(3.257rad) scaleX(1) scaleY(-1) skewX(0rad);
  }
  60% {
    animation-timing-function: cubic-bezier(0.7, -0.4, 0.4, 1.4);
    transform: translateX(251.049px) translateY(0px) translate(-6.052px, 18.053px) scaleX(1) scaleY(1) translate(6.052px, -18.053px) rotate(3.443rad) scaleX(1) scaleY(-1) skewX(0rad);
  }
  100% {
    transform: translateX(251.049px) translateY(0px) translate(-6.052px, 18.053px) scaleX(0) scaleY(0) translate(6.052px, -18.053px) rotate(3.691rad) scaleX(1) scaleY(-1) skewX(0rad);
  }
}
#glow_5 {
  transform-origin: 0 0;
  animation: kf_glow_5_transform_0 2s linear 1 both;
}
@keyframes kf_glow_6_transform_0 {
  0% {
    animation-timing-function: cubic-bezier(0.7, -0.4, 0.4, 1.4);
    transform: translateX(337.614px) translateY(208.46px) translate(-6.052px, 18.052px) scaleX(0) scaleY(0) translate(6.052px, -18.052px) rotate(2.854rad) scaleX(1) scaleY(-1) skewX(0rad);
  }
  40% {
    transform: translateX(337.614px) translateY(208.46px) translate(-6.052px, 18.052px) scaleX(1) scaleY(1) translate(6.052px, -18.052px) rotate(2.295rad) scaleX(1) scaleY(-1) skewX(0rad);
  }
  60% {
    animation-timing-function: cubic-bezier(0.7, -0.4, 0.4, 1.4);
    transform: translateX(337.614px) translateY(208.46px) translate(-6.052px, 18.052px) scaleX(1) scaleY(1) translate(6.052px, -18.052px) rotate(2.037rad) scaleX(1) scaleY(-1) skewX(0rad);
  }
  100% {
    transform: translateX(337.614px) translateY(208.46px) translate(-6.052px, 18.052px) scaleX(0) scaleY(0) translate(6.052px, -18.052px) rotate(1.693rad) scaleX(1) scaleY(-1) skewX(0rad);
  }
}
#glow_6 {
  transform-origin: 0 0;
  animation: kf_glow_6_transform_0 2s linear 1 both;
}
@keyframes kf_glow_7_transform_0 {
  0% {
    animation-timing-function: cubic-bezier(0.7, -0.4, 0.4, 1.4);
    transform: translateX(178.22px) translateY(97.766px) translate(-6.052px, 18.053px) scaleX(0) scaleY(0) translate(6.052px, -18.053px) rotate(2.854rad) scaleX(1) scaleY(-1) skewX(0rad);
  }
  40% {
    transform: translateX(178.22px) translateY(97.766px) translate(-6.052px, 18.053px) scaleX(1) scaleY(1) translate(6.052px, -18.053px) rotate(3.322rad) scaleX(1) scaleY(-1) skewX(0rad);
  }
  60% {
    animation-timing-function: cubic-bezier(0.7, -0.4, 0.4, 1.4);
    transform: translateX(178.22px) translateY(97.766px) translate(-6.052px, 18.053px) scaleX(1) scaleY(1) translate(6.052px, -18.053px) rotate(3.538rad) scaleX(1) scaleY(-1) skewX(0rad);
  }
  100% {
    transform: translateX(178.22px) translateY(97.766px) translate(-6.052px, 18.053px) scaleX(0) scaleY(0) translate(6.052px, -18.053px) rotate(3.826rad) scaleX(1) scaleY(-1) skewX(0rad);
  }
}
#glow_7 {
  transform-origin: 0 0;
  animation: kf_glow_7_transform_0 2s linear 1 both;
}
@keyframes kf_glow_8_transform_0 {
  0% {
    animation-timing-function: cubic-bezier(0.7, -0.4, 0.4, 1.4);
    transform: translateX(285.201px) translateY(119.413px) translate(-6.052px, 18.053px) scaleX(0) scaleY(0) translate(6.052px, -18.053px) rotate(2.854rad) scaleX(1) scaleY(-1) skewX(0rad);
  }
  40% {
    transform: translateX(285.201px) translateY(119.413px) translate(-6.052px, 18.053px) scaleX(1) scaleY(1) translate(6.052px, -18.053px) rotate(2.334rad) scaleX(1) scaleY(-1) skewX(0rad);
  }
  60% {
    animation-timing-function: cubic-bezier(0.7, -0.4, 0.4, 1.4);
    transform: translateX(285.201px) translateY(119.413px) translate(-6.052px, 18.053px) scaleX(1) scaleY(1) translate(6.052px, -18.053px) rotate(2.094rad) scaleX(1) scaleY(-1) skewX(0rad);
  }
  100% {
    transform: translateX(285.201px) translateY(119.413px) translate(-6.052px, 18.053px) scaleX(0) scaleY(0) translate(6.052px, -18.053px) rotate(1.774rad) scaleX(1) scaleY(-1) skewX(0rad);
  }
}
#glow_8 {
  transform-origin: 0 0;
  animation: kf_glow_8_transform_0 2s linear 1 both;
}
@keyframes kf_glow_9_transform_0 {
  0% {
    animation-timing-function: cubic-bezier(0.7, -0.4, 0.4, 1.4);
    transform: translateX(42.82px) translateY(51.376px) translate(-14.036px, 12.865px) scaleX(0) scaleY(0) translate(14.036px, -12.865px) rotate(-2.924rad) scaleX(1) scaleY(-1) skewX(0rad);
  }
  40% {
    transform: translateX(42.82px) translateY(51.376px) translate(-14.036px, 12.865px) scaleX(1) scaleY(1) translate(14.036px, -12.865px) rotate(-2.300rad) scaleX(1) scaleY(-1) skewX(0rad);
  }
  60% {
    animation-timing-function: cubic-bezier(0.7, -0.4, 0.4, 1.4);
    transform: translateX(42.82px) translateY(51.376px) translate(-14.036px, 12.865px) scaleX(1) scaleY(1) translate(14.036px, -12.865px) rotate(-2.012rad) scaleX(1) scaleY(-1) skewX(0rad);
  }
  100% {
    transform: translateX(42.82px) translateY(51.376px) translate(-14.036px, 12.865px) scaleX(0) scaleY(0) translate(14.036px, -12.865px) rotate(-1.628rad) scaleX(1) scaleY(-1) skewX(0rad);
  }
}
#glow_9 {
  transform-origin: 0 0;
  animation: kf_glow_9_transform_0 2s linear 1 both;
}
@keyframes kf_glow_10_transform_0 {
  0% {
    animation-timing-function: cubic-bezier(0.7, -0.4, 0.4, 1.4);
    transform: translateX(83.054px) translateY(179.437px) translate(-14.036px, 12.865px) scaleX(0) scaleY(0) translate(14.036px, -12.865px) rotate(-2.924rad) scaleX(1) scaleY(-1) skewX(0rad);
  }
  40% {
    transform: translateX(83.054px) translateY(179.437px) translate(-14.036px, 12.865px) scaleX(1) scaleY(1) translate(14.036px, -12.865px) rotate(-3.340rad) scaleX(1) scaleY(-1) skewX(0rad);
  }
  60% {
    animation-timing-function: cubic-bezier(0.7, -0.4, 0.4, 1.4);
    transform: translateX(83.054px) translateY(179.437px) translate(-14.036px, 12.865px) scaleX(1) scaleY(1) translate(14.036px, -12.865px) rotate(-3.532rad) scaleX(1) scaleY(-1) skewX(0rad);
  }
  100% {
    transform: translateX(83.054px) translateY(179.437px) translate(-14.036px, 12.865px) scaleX(0) scaleY(0) translate(14.036px, -12.865px) rotate(-3.788rad) scaleX(1) scaleY(-1) skewX(0rad);
  }
}
#glow_10 {
  transform-origin: 0 0;
  animation: kf_glow_10_transform_0 2s linear 1 both;
}
@keyframes kf_glow_11_transform_0 {
  0% {
    animation-timing-function: cubic-bezier(0.7, -0.4, 0.4, 1.4);
    transform: translateX(109.404px) translateY(284.489px) translate(6.649px, 10.261px) scaleX(0) scaleY(0) translate(-6.649px, -10.261px) rotate(0.036rad) scaleX(1) scaleY(1) skewX(0rad);
  }
  40% {
    transform: translateX(109.404px) translateY(284.489px) translate(6.649px, 10.261px) scaleX(1) scaleY(1) translate(-6.649px, -10.261px) rotate(0.491rad) scaleX(1) scaleY(1) skewX(0rad);
  }
  60% {
    animation-timing-function: cubic-bezier(0.7, -0.4, 0.4, 1.4);
    transform: translateX(109.404px) translateY(284.489px) translate(6.649px, 10.261px) scaleX(1) scaleY(1) translate(-6.649px, -10.261px) rotate(0.701rad) scaleX(1) scaleY(1) skewX(0rad);
  }
  100% {
    transform: translateX(109.404px) translateY(284.489px) translate(6.649px, 10.261px) scaleX(0) scaleY(0) translate(-6.649px, -10.261px) rotate(0.981rad) scaleX(1) scaleY(1) skewX(0rad);
  }
}
#glow_11 {
  transform-origin: 0 0;
  animation: kf_glow_11_transform_0 2s linear 1 both;
}
@keyframes kf_glow_12_transform_0 {
  0% {
    animation-timing-function: cubic-bezier(0.7, -0.4, 0.4, 1.4);
    transform: translateX(142.583px) translateY(3.872px) translate(6.648px, 10.261px) scaleX(0) scaleY(0) translate(-6.648px, -10.261px) rotate(0.036rad) scaleX(1) scaleY(1) skewX(0rad);
  }
  40% {
    transform: translateX(142.583px) translateY(3.872px) translate(6.648px, 10.261px) scaleX(1) scaleY(1) translate(-6.648px, -10.261px) rotate(-0.549rad) scaleX(1) scaleY(1) skewX(0rad);
  }
  60% {
    animation-timing-function: cubic-bezier(0.7, -0.4, 0.4, 1.4);
    transform: translateX(142.583px) translateY(3.872px) translate(6.648px, 10.261px) scaleX(1) scaleY(1) translate(-6.648px, -10.261px) rotate(-0.819rad) scaleX(1) scaleY(1) skewX(0rad);
  }
  100% {
    transform: translateX(142.583px) translateY(3.872px) translate(6.648px, 10.261px) scaleX(0) scaleY(0) translate(-6.648px, -10.261px) rotate(-1.179rad) scaleX(1) scaleY(1) skewX(0rad);
  }
}
#glow_12 {
  transform-origin: 0 0;
  animation: kf_glow_12_transform_0 2s linear 1 both;
}
@keyframes kf_glow_13_transform_0 {
  0% {
    animation-timing-function: cubic-bezier(0.7, -0.4, 0.4, 1.4);
    transform: translateX(0.725px) translateY(172.5px) translate(6.648px, 10.261px) scaleX(0) scaleY(0) translate(-6.648px, -10.261px) rotate(0.036rad) scaleX(1) scaleY(1) skewX(0rad);
  }
  40% {
    transform: translateX(0.725px) translateY(172.5px) translate(6.648px, 10.261px) scaleX(1) scaleY(1) translate(-6.648px, -10.261px) rotate(0.530rad) scaleX(1) scaleY(1) skewX(0rad);
  }
  60% {
    animation-timing-function: cubic-bezier(0.7, -0.4, 0.4, 1.4);
    transform: translateX(0.725px) translateY(172.5px) translate(6.648px, 10.261px) scaleX(1) scaleY(1) translate(-6.648px, -10.261px) rotate(0.758rad) scaleX(1) scaleY(1) skewX(0rad);
  }
  100% {
    transform: translateX(0.725px) translateY(172.5px) translate(6.648px, 10.261px) scaleX(0) scaleY(0) translate(-6.648px, -10.261px) rotate(1.062rad) scaleX(1) scaleY(1) skewX(0rad);
  }
}
#glow_13 {
  transform-origin: 0 0;
  animation: kf_glow_13_transform_0 2s linear 1 both;
}
@keyframes kf_glow_14_transform_0 {
  0% {
    animation-timing-function: cubic-bezier(0.7, -0.4, 0.4, 1.4);
    transform: translateX(257.768px) translateY(105.089px) translate(6.649px, 10.261px) scaleX(0) scaleY(0) translate(-6.649px, -10.261px) rotate(0.036rad) scaleX(1) scaleY(1) skewX(0rad);
  }
  40% {
    transform: translateX(257.768px) translateY(105.089px) translate(6.649px, 10.261px) scaleX(1) scaleY(1) translate(-6.649px, -10.261px) rotate(-0.432rad) scaleX(1) scaleY(1) skewX(0rad);
  }
  60% {
    animation-timing-function: cubic-bezier(0.7, -0.4, 0.4, 1.4);
    transform: translateX(257.768px) translateY(105.089px) translate(6.649px, 10.261px) scaleX(1) scaleY(1) translate(-6.649px, -10.261px) rotate(-0.648rad) scaleX(1) scaleY(1) skewX(0rad);
  }
  100% {
    transform: translateX(257.768px) translateY(105.089px) translate(6.649px, 10.261px) scaleX(0) scaleY(0) translate(-6.649px, -10.261px) rotate(-0.936rad) scaleX(1) scaleY(1) skewX(0rad);
  }
}
#glow_14 {
  transform-origin: 0 0;
  animation: kf_glow_14_transform_0 2s linear 1 both;
}
@keyframes kf_glow_15_transform_0 {
  0% {
    animation-timing-function: cubic-bezier(0.7, -0.4, 0.4, 1.4);
    transform: translateX(187.069px) translateY(334.741px) translate(6.649px, 10.261px) scaleX(0) scaleY(0) translate(-6.649px, -10.261px) rotate(0.036rad) scaleX(1) scaleY(1) skewX(0rad);
  }
  40% {
    transform: translateX(187.069px) translateY(334.741px) translate(6.649px, 10.261px) scaleX(1) scaleY(1) translate(-6.649px, -10.261px) rotate(0.582rad) scaleX(1) scaleY(1) skewX(0rad);
  }
  60% {
    animation-timing-function: cubic-bezier(0.7, -0.4, 0.4, 1.4);
    transform: translateX(187.069px) translateY(334.741px) translate(6.649px, 10.261px) scaleX(1) scaleY(1) translate(-6.649px, -10.261px) rotate(0.834rad) scaleX(1) scaleY(1) skewX(0rad);
  }
  100% {
    transform: translateX(187.069px) translateY(334.741px) translate(6.649px, 10.261px) scaleX(0) scaleY(0) translate(-6.649px, -10.261px) rotate(1.170rad) scaleX(1) scaleY(1) skewX(0rad);
  }
}
#glow_15 {
  transform-origin: 0 0;
  animation: kf_glow_15_transform_0 2s linear 1 both;
}
@keyframes kf_glow_16_transform_0 {
  0% {
    animation-timing-function: cubic-bezier(0.7, -0.4, 0.4, 1.4);
    transform: translateX(239.007px) translateY(40.886px) translate(-3.886px, 11.593px) scaleX(0) scaleY(0) translate(3.886px, -11.593px) rotate(2.854rad) scaleX(1) scaleY(-1) skewX(0rad);
  }
  40% {
    transform: translateX(239.007px) translateY(40.886px) translate(-3.886px, 11.593px) scaleX(1) scaleY(1) translate(3.886px, -11.593px) rotate(2.425rad) scaleX(1) scaleY(-1) skewX(0rad);
  }
  60% {
    animation-timing-function: cubic-bezier(0.7, -0.4, 0.4, 1.4);
    transform: translateX(239.007px) translateY(40.886px) translate(-3.886px, 11.593px) scaleX(1) scaleY(1) translate(3.886px, -11.593px) rotate(2.227rad) scaleX(1) scaleY(-1) skewX(0rad);
  }
  100% {
    transform: translateX(239.007px) translateY(40.886px) translate(-3.886px, 11.593px) scaleX(0) scaleY(0) translate(3.886px, -11.593px) rotate(1.963rad) scaleX(1) scaleY(-1) skewX(0rad);
  }
}
#glow_16 {
  transform-origin: 0 0;
  animation: kf_glow_16_transform_0 2s linear 1 both;
}
@keyframes kf_glow_17_transform_0 {
  0% {
    animation-timing-function: cubic-bezier(0.7, -0.4, 0.4, 1.4);
    transform: translateX(325.566px) translateY(249.347px) translate(-3.885px, 11.593px) scaleX(0) scaleY(0) translate(3.885px, -11.593px) rotate(2.854rad) scaleX(1) scaleY(-1) skewX(0rad);
  }
  40% {
    transform: translateX(325.566px) translateY(249.347px) translate(-3.885px, 11.593px) scaleX(1) scaleY(1) translate(3.885px, -11.593px) rotate(3.374rad) scaleX(1) scaleY(-1) skewX(0rad);
  }
  60% {
    animation-timing-function: cubic-bezier(0.7, -0.4, 0.4, 1.4);
    transform: translateX(325.566px) translateY(249.347px) translate(-3.885px, 11.593px) scaleX(1) scaleY(1) translate(3.885px, -11.593px) rotate(3.614rad) scaleX(1) scaleY(-1) skewX(0rad);
  }
  100% {
    transform: translateX(325.566px) translateY(249.347px) translate(-3.885px, 11.593px) scaleX(0) scaleY(0) translate(3.885px, -11.593px) rotate(3.934rad) scaleX(1) scaleY(-1) skewX(0rad);
  }
}
#glow_17 {
  transform-origin: 0 0;
  animation: kf_glow_17_transform_0 2s linear 1 both;
}
</style>
<g id="Frame_2087328813">
<g id="glow2" transform="translate(0.000480954 0.000244141)">
<g id="glow" transform="translate(34.8351 270.248) rotate(-19.3516)">
<g id="Union">
<path d="M24.1367 0.287109C24.177 31.1024 30.7296 34.4473 48.2725 34.4473H48.125C30.6932 34.4662 24.1771 37.877 24.1367 68.6045V68.8945C24.1367 37.8131 17.597 34.4473 0 34.4473H24.1357V34.4463L0 34.4463C17.5972 34.4463 24.1367 31.0815 24.1367 0V0.287109Z" fill="url(#paint0_linear_6602_25366)" shape-rendering="crispEdges"/>
</g>
<g id="Union_2" transform="translate(11.0396 15.757)">
<path d="M13.1064 1.53809C13.3237 16.9763 16.9424 18.6895 26.1914 18.6895H13.0957L13.0957 18.6904H26.1914C16.9423 18.6904 13.3227 20.4034 13.1055 35.8418L13.0957 37.3789C13.0957 20.5154 9.5475 18.6895 0 18.6895C9.54746 18.6895 13.0957 16.8634 13.0957 0L13.1064 1.53809Z" fill="url(#paint1_linear_6602_25366)" shape-rendering="crispEdges"/>
</g>
</g>
<g id="glow_2" transform="matrix(-0.996283 -0.0861457 -0.0861457 0.996283 307.69 8.53716)">
<g id="Union_3">
<path d="M24.1367 0C24.1368 31.0812 30.6755 34.4463 48.2725 34.4463L24.1367 34.4463V34.4473H48.2715C30.8383 34.4473 24.2579 37.7503 24.1367 68.0322V68.8936C24.1367 68.7495 24.135 68.6057 24.1348 68.4629C24.1345 68.6061 24.1338 68.7501 24.1338 68.8945V68.0303C24.0128 37.8346 17.4701 34.4661 0.147461 34.4473H0C17.5969 34.4472 24.1367 31.0814 24.1367 0Z" fill="url(#paint2_linear_6602_25366)" shape-rendering="crispEdges"/>
</g>
<g id="Union_4" transform="translate(11.0402 15.7557)">
<path d="M13.0947 0.139648C13.1143 16.874 16.6683 18.6895 26.1895 18.6895L26.1904 18.6895C16.6696 18.6895 13.1155 20.5054 13.0957 37.2383L13.0957 37.3789C13.0957 20.5156 9.54722 18.6895 0 18.6895C9.54658 18.6893 13.0947 16.8628 13.0947 0V0.139648Z" fill="url(#paint3_linear_6602_25366)" shape-rendering="crispEdges"/>
</g>
</g>
<g id="glow_3" transform="matrix(-0.996283 -0.0861457 -0.0861457 0.996283 326.87 196.46)">
<g id="Union_5">
<path d="M24.1367 0C24.1368 31.0805 30.6757 34.4462 48.2725 34.4463H24.1367V34.4473L48.2715 34.4473C30.7835 34.4473 24.2176 37.7705 24.1367 68.3184V68.8926C24.1367 68.7966 24.1359 68.7009 24.1357 68.6055C24.1356 68.7012 24.1348 68.7973 24.1348 68.8936V68.3174C24.0542 37.8553 17.5251 34.4651 0.147461 34.4463H0C17.5969 34.4463 24.1367 31.081 24.1367 0Z" fill="url(#paint4_linear_6602_25366)" shape-rendering="crispEdges"/>
</g>
<g id="Union_6" transform="translate(11.0392 15.7577)">
<path d="M13.0957 0.139648C13.1153 16.8734 16.6694 18.6895 26.1904 18.6895H26.1914C16.6704 18.6895 13.1164 20.5049 13.0967 37.2383V37.3779C13.0966 20.6015 9.58442 18.7085 0.147461 18.6895H0C9.54723 18.6894 13.0956 16.863 13.0957 0V0.139648Z" fill="url(#paint5_linear_6602_25366)" shape-rendering="crispEdges"/>
</g>
</g>
<g id="glow_4" transform="translate(87.5636 247.887) rotate(2.07558)">
<g id="Union_7">
<path d="M21.8516 15.5928C13.886 15.5928 10.9258 17.1161 10.9258 31.1855L10.9258 31.1875C10.9258 17.1176 7.96566 15.5938 0 15.5938L10.9258 15.5938V15.5928H21.8516ZM10.9258 0.140625C10.9457 14.0788 13.9125 15.5918 21.8516 15.5918L10.9258 15.5918V15.5928H0C7.9658 15.5928 10.9257 14.0698 10.9258 0V0.140625Z" fill="url(#paint6_linear_6602_25366)" shape-rendering="crispEdges"/>
</g>
<g id="Union_8" transform="translate(4.99659 7.13219)">
<path d="M5.92871 0C5.92871 7.63382 7.53447 8.45996 11.8564 8.45996H11.791C7.51772 8.46835 5.92773 9.32433 5.92773 16.9199L5.92773 16.9189C5.92767 9.32721 4.33916 8.46911 0.0703125 8.45996L0 8.45996C4.32191 8.45996 5.92866 7.63348 5.92871 0Z" fill="url(#paint7_linear_6602_25366)" shape-rendering="crispEdges"/>
</g>
</g>
<g id="glow_5" transform="matrix(-0.958893 0.283768 0.283768 0.958893 251.049 3.29769e-05)">
<g id="Union_9">
<path d="M10.9336 1.28223C11.1147 14.1636 14.1346 15.5937 21.8516 15.5938H21.7051C13.8764 15.6128 10.9466 17.1922 10.9268 31.0439V31.1865C10.9268 17.5561 8.14833 15.7003 0.732422 15.5977L0 15.5928C7.96583 15.5928 10.9257 14.0698 10.9258 0L10.9336 1.28223Z" fill="url(#paint8_linear_6602_25366)" shape-rendering="crispEdges"/>
</g>
<g id="Union_10" transform="translate(4.99627 7.13142)">
<path d="M5.92676 0.139648C5.92688 0.0936756 5.92773 0.0474527 5.92773 0.000976562L5.92773 0.27832C5.96686 7.65398 7.58486 8.46089 11.8535 8.46094H11.8545C7.56563 8.46094 5.9522 9.27477 5.92773 16.7471V16.9219C5.92773 9.28815 4.32185 8.46096 0 8.46094C4.26836 8.46083 5.88673 7.65413 5.92578 0.27832V0C5.92578 0.0467443 5.92664 0.0934133 5.92676 0.139648Z" fill="url(#paint9_linear_6602_25366)" shape-rendering="crispEdges"/>
</g>
</g>
<g id="glow_6" transform="matrix(-0.958893 0.283768 0.283768 0.958893 337.614 208.46)">
<g id="Union_11">
<path d="M10.9268 0.141602C10.9467 14.0798 13.9128 15.5927 21.8516 15.5928H21.8525C13.9135 15.5928 10.9467 17.1057 10.9268 31.0439L10.9268 31.1855C10.9267 17.116 7.96658 15.5928 0.000976562 15.5928H0C7.96587 15.5928 10.9267 14.0697 10.9268 0L10.9268 0.141602Z" fill="url(#paint10_linear_6602_25366)" shape-rendering="crispEdges"/>
</g>
<g id="Union_12" transform="translate(4.99725 7.13044)">
<path d="M5.92773 8.46094H0C4.26887 8.46094 5.8876 7.65492 5.92676 0.279297V0C5.92676 0.0466625 5.92761 0.0934932 5.92773 0.139648C5.92785 0.0936753 5.92871 0.047453 5.92871 0.000976562V0.27832C5.96533 7.18759 7.38752 8.33199 11.0762 8.44922L11.8555 8.46094C7.58693 8.46098 5.96891 9.26755 5.92969 16.6426V16.9219C5.92969 16.8751 5.92883 16.8285 5.92871 16.7822C5.92859 16.8284 5.92773 16.8752 5.92773 16.9219L5.92773 16.6426C5.88844 9.2678 4.26967 8.46191 0.000976562 8.46191H5.92773V8.46094Z" fill="url(#paint11_linear_6602_25366)" shape-rendering="crispEdges"/>
</g>
</g>
<g id="glow_7" transform="matrix(-0.958893 0.283768 0.283768 0.958893 178.22 97.7656)">
<g id="Union_13">
<path d="M10.9258 0.141602C10.9457 14.0803 13.9124 15.5938 21.8516 15.5938H21.7051C13.8762 15.6128 10.9466 17.1921 10.9268 31.0439L10.9268 31.1865C10.9268 17.203 8.00224 15.6128 0.146484 15.5938H0C7.96561 15.5937 10.9258 14.0697 10.9258 0L10.9258 0.141602Z" fill="url(#paint12_linear_6602_25366)" shape-rendering="crispEdges"/>
</g>
<g id="Union_14" transform="translate(4.99725 7.13177)">
<path d="M0 8.46094V8.45996C4.32174 8.45993 5.92771 7.63352 5.92773 0V0.172852C5.95211 7.64575 7.56547 8.45996 11.8545 8.45996H11.8555C7.58667 8.45996 5.96792 9.2663 5.92871 16.6416V16.9209C5.92871 9.28707 4.32199 8.46094 0 8.46094Z" fill="url(#paint13_linear_6602_25366)" shape-rendering="crispEdges"/>
</g>
</g>
<g id="glow_8" transform="matrix(-0.958893 0.283768 0.283768 0.958893 285.201 119.413)">
<g id="Union_15">
<path d="M10.9258 0.141602C10.9457 14.0802 13.9124 15.5938 21.8516 15.5938H21.7051C13.8763 15.6128 10.9466 17.1921 10.9268 31.0439L10.9268 31.1865C10.9268 17.5562 8.14821 15.7003 0.732422 15.5977L0 15.5928C7.96571 15.5927 10.9257 14.0697 10.9258 0V0.141602Z" fill="url(#paint14_linear_6602_25366)" shape-rendering="crispEdges"/>
</g>
<g id="Union_16" transform="translate(4.99725 7.13142)">
<path d="M5.92773 0.138672C5.94726 7.64353 7.55987 8.45996 11.8555 8.45996C7.58672 8.45996 5.96796 9.26656 5.92871 16.6416V16.9209C5.92868 9.2875 4.32261 8.46099 0.000976562 8.46094H0C4.32189 8.46092 5.92773 7.63376 5.92773 0V0.138672Z" fill="url(#paint15_linear_6602_25366)" shape-rendering="crispEdges"/>
</g>
</g>
<g id="glow_9" transform="matrix(-0.97639 -0.216014 -0.216014 0.97639 42.8197 51.3757)">
<g id="Union_17">
<path d="M10.9258 0.142578C10.9258 0.0955721 10.9268 0.0482657 10.9268 0.000976562V0.285156C10.9668 14.0908 13.9391 15.5937 21.8506 15.5938H21.8516C13.9398 15.5938 10.9669 17.0961 10.9268 30.9014V31.1875C10.9268 17.204 8.00231 15.6138 0.146484 15.5947H0C7.91177 15.5947 10.8848 14.0918 10.9248 0.286133V0C10.9248 0.0475526 10.9257 0.0953117 10.9258 0.142578Z" fill="url(#paint16_linear_6602_25366)" shape-rendering="crispEdges"/>
</g>
<g id="Union_18" transform="translate(4.99646 7.13495)">
<path d="M5.92871 0C5.92875 7.63356 7.53452 8.45996 11.8564 8.45996V8.46094C7.53446 8.46094 5.92871 9.28707 5.92871 16.9209C5.92871 9.28707 4.32199 8.45996 0 8.45996C4.32191 8.45996 5.92866 7.63347 5.92871 0Z" fill="url(#paint17_linear_6602_25366)" shape-rendering="crispEdges"/>
</g>
</g>
<g id="glow_10" transform="matrix(-0.97639 -0.216014 -0.216014 0.97639 83.0538 179.437)">
<g id="Union_19">
<path d="M10.9258 0.141602C10.9457 14.0797 13.9117 15.5927 21.8506 15.5928L21.1191 15.5977C13.729 15.6999 10.9452 17.5424 10.9258 31.043V31.1865C10.9258 17.2032 8.00214 15.6128 0.146484 15.5938H0C7.96572 15.5937 10.9258 14.0699 10.9258 0V0.141602Z" fill="url(#paint18_linear_6602_25366)" shape-rendering="crispEdges"/>
</g>
<g id="Union_20" transform="translate(4.99657 7.13402)">
<path d="M11.8564 8.46094C7.6696 8.46094 6.03098 9.23622 5.93262 16.2246L5.92773 16.9209C5.92773 9.28708 4.32197 8.46094 0 8.46094H11.8564ZM5.92871 0.138672C5.94822 7.64367 7.56081 8.45996 11.8564 8.45996H0C4.32193 8.45996 5.92867 7.63355 5.92871 0V0.138672Z" fill="url(#paint19_linear_6602_25366)" shape-rendering="crispEdges"/>
</g>
</g>
<g id="glow_11" transform="translate(109.404 284.489) rotate(2.07558)">
<g id="Union_21">
<path d="M7.01758 0.136719C7.03674 9.04537 8.94366 10.0137 14.0332 10.0137L14.0322 10.0137C9.07703 10.0137 7.13786 10.9318 7.02148 19.2031L7.0166 20.0273C7.0166 10.9921 5.11541 10.0137 0 10.0137H0.000976562C5.11632 10.0137 7.01758 9.03519 7.01758 0V0.136719Z" fill="url(#paint20_linear_6602_25366)" shape-rendering="crispEdges"/>
</g>
<g id="Union_22" transform="translate(3.20966 4.57801)">
<path d="M3.80664 0.0673828C3.816 4.90744 4.84984 5.43354 7.6123 5.43359H7.54102C4.81908 5.4429 3.80568 6.00529 3.80566 10.8652V10.8643C3.80561 6.00475 2.79198 5.44197 0.0703125 5.43262H0C2.7751 5.43257 3.80664 4.9019 3.80664 0V0.0673828Z" fill="url(#paint21_linear_6602_25366)" shape-rendering="crispEdges"/>
</g>
</g>
<g id="glow_12" transform="translate(142.583 3.87166) rotate(2.07558)">
<g id="Union_23">
<path d="M7.0166 0.136719C7.0358 9.04455 8.94248 10.0136 14.0312 10.0137C9.076 10.0137 7.13684 10.9315 7.02051 19.2031L7.01562 20.0264C7.01558 11.0298 5.13086 10.0221 0.0644531 10.0137L0 10.0137C5.11533 10.0137 7.01659 9.03511 7.0166 0V0.136719Z" fill="url(#paint22_linear_6602_25366)" shape-rendering="crispEdges"/>
</g>
<g id="Union_24" transform="translate(3.20869 4.57801)">
<path d="M3.80664 0.0664062C3.8159 4.90711 4.84971 5.43354 7.6123 5.43359H7.54102C4.81905 5.4429 3.80566 6.00516 3.80566 10.8652V10.8643C3.80565 6.00449 2.79203 5.44197 0.0703125 5.43262H0C2.77501 5.43256 3.80658 4.9015 3.80664 0L3.80664 0.0664062Z" fill="url(#paint23_linear_6602_25366)" shape-rendering="crispEdges"/>
</g>
</g>
<g id="glow_13" transform="translate(0.724974 172.5) rotate(2.07558)">
<g id="Union_25">
<path d="M7.0166 0.274414C7.05516 9.05529 8.96807 10.0137 14.0312 10.0137L13.1094 10.0264C8.73405 10.1654 7.05282 11.5263 7.0166 19.752L7.0166 20.0264C7.0166 19.9803 7.01572 19.9344 7.01562 19.8887C7.01553 19.9345 7.01465 19.9811 7.01465 20.0273V19.752C6.976 10.9717 5.06306 10.0137 0 10.0137C5.06291 10.0136 6.97608 9.05501 7.01465 0.274414V0C7.01465 0.0457191 7.01553 0.0914114 7.01562 0.136719C7.01572 0.0913817 7.0166 0.0457492 7.0166 0V0.274414Z" fill="url(#paint24_linear_6602_25366)" shape-rendering="crispEdges"/>
</g>
<g id="Union_26" transform="translate(3.20869 4.57996)">
<path d="M3.80762 0.133789C3.82634 4.9122 4.86248 5.43355 7.6123 5.43359H7.54199C4.82056 5.443 3.80664 6.00559 3.80664 10.8652V10.8643L3.79395 9.99609C3.67166 5.93592 2.6214 5.4414 0.0712891 5.43262L0 5.43262C2.77538 5.43262 3.8076 4.90202 3.80762 0V0.133789Z" fill="url(#paint25_linear_6602_25366)" shape-rendering="crispEdges"/>
</g>
</g>
<g id="glow_14" transform="translate(257.768 105.089) rotate(2.07558)">
<g id="Union_27">
<path d="M7.01758 0.137695C7.03684 9.04526 8.94335 10.0136 14.0322 10.0137C8.94304 10.0137 7.03593 10.9822 7.0166 19.8896L7.0166 20.0273C7.0166 10.9921 5.11541 10.0137 0 10.0137C5.11541 10.0137 7.01758 9.03524 7.01758 0L7.01758 0.137695Z" fill="url(#paint26_linear_6602_25366)" shape-rendering="crispEdges"/>
</g>
<g id="Union_28" transform="translate(3.20869 4.57801)">
<path d="M3.80762 0.0673828C3.81694 4.90781 4.85059 5.43357 7.61328 5.43359H7.54199C4.83254 5.44283 3.81608 6.00016 3.80664 10.7979V10.8652C3.80664 6.0376 2.80619 5.45035 0.125 5.43359L0 5.43359C0.0208226 5.43359 0.0418734 5.43268 0.0625 5.43262C0.0417652 5.43255 0.020933 5.43164 0 5.43164L0.125 5.43164C2.80667 5.41497 3.80762 4.82802 3.80762 0V0.0673828Z" fill="url(#paint27_linear_6602_25366)" shape-rendering="crispEdges"/>
</g>
</g>
<g id="glow_15" transform="translate(187.069 334.741) rotate(2.07558)">
<g id="Union_29">
<path d="M7.0166 0.136719C7.03583 9.04483 8.94291 10.0136 14.0322 10.0137H13.9668C8.90037 10.0221 7.01565 11.0297 7.01562 20.0264C7.01561 11.0301 5.1313 10.0222 0.0654297 10.0137H0C5.11536 10.0137 7.01656 9.03499 7.0166 0V0.136719Z" fill="url(#paint28_linear_6602_25366)" shape-rendering="crispEdges"/>
</g>
<g id="Union_30" transform="translate(3.21064 4.57899)">
<path d="M3.80664 0.000976562C3.80664 4.90311 4.83788 5.43359 7.61328 5.43359L7.5498 5.43359C4.82144 5.44176 3.80566 6.00108 3.80566 10.8662V10.8652L3.79395 9.99609C3.67157 5.9362 2.62063 5.44232 0.0703125 5.43359L0 5.43359C2.77531 5.43358 3.80664 4.90206 3.80664 0V0.000976562Z" fill="url(#paint29_linear_6602_25366)" shape-rendering="crispEdges"/>
</g>
</g>
<g id="glow_16" transform="matrix(-0.958893 0.283768 0.283768 0.958893 239.007 40.8857)">
<g id="Union_31">
<path d="M7.01465 0.137695C7.01475 0.0924263 7.01562 0.0466566 7.01562 0.000976562V0.274414C7.05416 9.05547 8.96706 10.0137 14.0303 10.0137H14.0312C8.96828 10.0137 7.05531 10.9721 7.0166 19.752V20.0283C7.0166 19.978 7.01574 19.9278 7.01562 19.8779C7.01551 19.9275 7.01465 19.9773 7.01465 20.0273V19.6982C6.96824 10.969 5.05246 10.0146 0 10.0146C5.06272 10.0146 6.97513 9.056 7.01367 0.275391V0C7.01367 0.0459796 7.01455 0.0921321 7.01465 0.137695Z" fill="url(#paint30_linear_6602_25366)" shape-rendering="crispEdges"/>
</g>
<g id="Union_32" transform="translate(3.20956 4.57961)">
<path d="M3.80664 0.0683594C3.81599 4.90845 4.84986 5.43451 7.6123 5.43457H7.55176C4.82331 5.44272 3.80762 6.00199 3.80762 10.8672V5.43457H3.80664V10.8662C3.80664 6.00128 2.79061 5.44181 0.0625 5.43359L0 5.43359C2.77531 5.43358 3.80664 4.90206 3.80664 0V0.0683594Z" fill="url(#paint31_linear_6602_25366)" shape-rendering="crispEdges"/>
</g>
</g>
<g id="glow_17" transform="matrix(-0.958893 0.283768 0.283768 0.958893 325.566 249.347)">
<g id="Union_33">
<path d="M7.01367 0.149414C7.01379 0.100177 7.01465 0.0507003 7.01465 0.000976562V0.274414C7.05328 9.05478 8.96624 10.0127 14.0293 10.0127H14.0303C8.99382 10.0127 7.07464 10.9614 7.0166 19.6143L7.0166 20.0273C7.0166 19.9579 7.01487 19.8888 7.01465 19.8203C7.01442 19.8885 7.01367 19.9572 7.01367 20.0264L7.01367 19.6152C6.95565 10.9624 5.03631 10.0137 0 10.0137C5.05152 10.0135 6.96634 9.05889 7.0127 0.330078V0C7.0127 0.050052 7.01355 0.0998553 7.01367 0.149414Z" fill="url(#paint32_linear_6602_25366)" shape-rendering="crispEdges"/>
</g>
<g id="Union_34" transform="translate(3.20858 4.57961)">
<path d="M3.80762 5.43359H3.80664L3.80664 10.8652C3.80664 6.26949 2.90018 5.51572 0.5 5.43945L0 5.43262C2.77535 5.43262 3.80661 4.9019 3.80664 0V0.000976562C3.80664 4.90311 4.83788 5.43359 7.61328 5.43359H7.61426C4.83901 5.43362 3.80762 5.9642 3.80762 10.8662V5.43359Z" fill="url(#paint33_linear_6602_25366)" shape-rendering="crispEdges"/>
</g>
</g>
</g>
</g>
<defs>
<linearGradient id="paint0_linear_6602_25366" x1="24.1362" y1="0" x2="24.1362" y2="68.8945" gradientUnits="userSpaceOnUse">
<stop stop-color="white" stop-opacity="0.8"/>
<stop offset="1" stop-color="white" stop-opacity="0.2"/>
</linearGradient>
<linearGradient id="paint1_linear_6602_25366" x1="13.0957" y1="0" x2="13.0957" y2="37.3788" gradientUnits="userSpaceOnUse">
<stop stop-color="white" stop-opacity="0.8"/>
<stop offset="1" stop-color="white" stop-opacity="0.2"/>
</linearGradient>
<linearGradient id="paint2_linear_6602_25366" x1="24.1362" y1="0" x2="24.1362" y2="68.8945" gradientUnits="userSpaceOnUse">
<stop stop-color="white" stop-opacity="0.8"/>
<stop offset="1" stop-color="white" stop-opacity="0.2"/>
</linearGradient>
<linearGradient id="paint3_linear_6602_25366" x1="13.0952" y1="0" x2="13.0952" y2="37.3789" gradientUnits="userSpaceOnUse">
<stop stop-color="white" stop-opacity="0.8"/>
<stop offset="1" stop-color="white" stop-opacity="0.2"/>
</linearGradient>
<linearGradient id="paint4_linear_6602_25366" x1="24.1362" y1="0" x2="24.1362" y2="68.8936" gradientUnits="userSpaceOnUse">
<stop stop-color="white" stop-opacity="0.8"/>
<stop offset="1" stop-color="white" stop-opacity="0.2"/>
</linearGradient>
<linearGradient id="paint5_linear_6602_25366" x1="13.0957" y1="0" x2="13.0957" y2="37.3779" gradientUnits="userSpaceOnUse">
<stop stop-color="white" stop-opacity="0.8"/>
<stop offset="1" stop-color="white" stop-opacity="0.2"/>
</linearGradient>
<linearGradient id="paint6_linear_6602_25366" x1="10.9258" y1="0" x2="10.9258" y2="31.1875" gradientUnits="userSpaceOnUse">
<stop stop-color="white" stop-opacity="0.8"/>
<stop offset="1" stop-color="white" stop-opacity="0.2"/>
</linearGradient>
<linearGradient id="paint7_linear_6602_25366" x1="5.92822" y1="0" x2="5.92822" y2="16.9199" gradientUnits="userSpaceOnUse">
<stop stop-color="white" stop-opacity="0.8"/>
<stop offset="1" stop-color="white" stop-opacity="0.2"/>
</linearGradient>
<linearGradient id="paint8_linear_6602_25366" x1="10.9258" y1="0" x2="10.9258" y2="31.1865" gradientUnits="userSpaceOnUse">
<stop stop-color="white" stop-opacity="0.8"/>
<stop offset="1" stop-color="white" stop-opacity="0.2"/>
</linearGradient>
<linearGradient id="paint9_linear_6602_25366" x1="5.92725" y1="0" x2="5.92725" y2="16.9219" gradientUnits="userSpaceOnUse">
<stop stop-color="white" stop-opacity="0.8"/>
<stop offset="1" stop-color="white" stop-opacity="0.2"/>
</linearGradient>
<linearGradient id="paint10_linear_6602_25366" x1="10.9263" y1="0" x2="10.9263" y2="31.1855" gradientUnits="userSpaceOnUse">
<stop stop-color="white" stop-opacity="0.8"/>
<stop offset="1" stop-color="white" stop-opacity="0.2"/>
</linearGradient>
<linearGradient id="paint11_linear_6602_25366" x1="5.92773" y1="0" x2="5.92773" y2="16.9219" gradientUnits="userSpaceOnUse">
<stop stop-color="white" stop-opacity="0.8"/>
<stop offset="1" stop-color="white" stop-opacity="0.2"/>
</linearGradient>
<linearGradient id="paint12_linear_6602_25366" x1="10.9258" y1="0" x2="10.9258" y2="31.1865" gradientUnits="userSpaceOnUse">
<stop stop-color="white" stop-opacity="0.8"/>
<stop offset="1" stop-color="white" stop-opacity="0.2"/>
</linearGradient>
<linearGradient id="paint13_linear_6602_25366" x1="5.92773" y1="0" x2="5.92773" y2="16.9209" gradientUnits="userSpaceOnUse">
<stop stop-color="white" stop-opacity="0.8"/>
<stop offset="1" stop-color="white" stop-opacity="0.2"/>
</linearGradient>
<linearGradient id="paint14_linear_6602_25366" x1="10.9258" y1="0" x2="10.9258" y2="31.1865" gradientUnits="userSpaceOnUse">
<stop stop-color="white" stop-opacity="0.8"/>
<stop offset="1" stop-color="white" stop-opacity="0.2"/>
</linearGradient>
<linearGradient id="paint15_linear_6602_25366" x1="5.92773" y1="0" x2="5.92773" y2="16.9209" gradientUnits="userSpaceOnUse">
<stop stop-color="white" stop-opacity="0.8"/>
<stop offset="1" stop-color="white" stop-opacity="0.2"/>
</linearGradient>
<linearGradient id="paint16_linear_6602_25366" x1="10.9258" y1="0" x2="10.9258" y2="31.1875" gradientUnits="userSpaceOnUse">
<stop stop-color="white" stop-opacity="0.8"/>
<stop offset="1" stop-color="white" stop-opacity="0.2"/>
</linearGradient>
<linearGradient id="paint17_linear_6602_25366" x1="5.92822" y1="0" x2="5.92822" y2="16.9209" gradientUnits="userSpaceOnUse">
<stop stop-color="white" stop-opacity="0.8"/>
<stop offset="1" stop-color="white" stop-opacity="0.2"/>
</linearGradient>
<linearGradient id="paint18_linear_6602_25366" x1="10.9253" y1="0" x2="10.9253" y2="31.1865" gradientUnits="userSpaceOnUse">
<stop stop-color="white" stop-opacity="0.8"/>
<stop offset="1" stop-color="white" stop-opacity="0.2"/>
</linearGradient>
<linearGradient id="paint19_linear_6602_25366" x1="5.92822" y1="0" x2="5.92822" y2="16.9209" gradientUnits="userSpaceOnUse">
<stop stop-color="white" stop-opacity="0.8"/>
<stop offset="1" stop-color="white" stop-opacity="0.2"/>
</linearGradient>
<linearGradient id="paint20_linear_6602_25366" x1="7.0166" y1="0" x2="7.0166" y2="20.0273" gradientUnits="userSpaceOnUse">
<stop stop-color="white" stop-opacity="0.8"/>
<stop offset="1" stop-color="white" stop-opacity="0.2"/>
</linearGradient>
<linearGradient id="paint21_linear_6602_25366" x1="3.80615" y1="0" x2="3.80615" y2="10.8652" gradientUnits="userSpaceOnUse">
<stop stop-color="white" stop-opacity="0.8"/>
<stop offset="1" stop-color="white" stop-opacity="0.2"/>
</linearGradient>
<linearGradient id="paint22_linear_6602_25366" x1="7.01562" y1="0" x2="7.01563" y2="20.0264" gradientUnits="userSpaceOnUse">
<stop stop-color="white" stop-opacity="0.8"/>
<stop offset="1" stop-color="white" stop-opacity="0.2"/>
</linearGradient>
<linearGradient id="paint23_linear_6602_25366" x1="3.80615" y1="0" x2="3.80615" y2="10.8652" gradientUnits="userSpaceOnUse">
<stop stop-color="white" stop-opacity="0.8"/>
<stop offset="1" stop-color="white" stop-opacity="0.2"/>
</linearGradient>
<linearGradient id="paint24_linear_6602_25366" x1="7.01562" y1="0" x2="7.01563" y2="20.0273" gradientUnits="userSpaceOnUse">
<stop stop-color="white" stop-opacity="0.8"/>
<stop offset="1" stop-color="white" stop-opacity="0.2"/>
</linearGradient>
<linearGradient id="paint25_linear_6602_25366" x1="3.80615" y1="0" x2="3.80615" y2="10.8652" gradientUnits="userSpaceOnUse">
<stop stop-color="white" stop-opacity="0.8"/>
<stop offset="1" stop-color="white" stop-opacity="0.2"/>
</linearGradient>
<linearGradient id="paint26_linear_6602_25366" x1="7.01611" y1="0" x2="7.01611" y2="20.0273" gradientUnits="userSpaceOnUse">
<stop stop-color="white" stop-opacity="0.8"/>
<stop offset="1" stop-color="white" stop-opacity="0.2"/>
</linearGradient>
<linearGradient id="paint27_linear_6602_25366" x1="3.80664" y1="0" x2="3.80664" y2="10.8652" gradientUnits="userSpaceOnUse">
<stop stop-color="white" stop-opacity="0.8"/>
<stop offset="1" stop-color="white" stop-opacity="0.2"/>
</linearGradient>
<linearGradient id="paint28_linear_6602_25366" x1="7.01611" y1="0" x2="7.01611" y2="20.0264" gradientUnits="userSpaceOnUse">
<stop stop-color="white" stop-opacity="0.8"/>
<stop offset="1" stop-color="white" stop-opacity="0.2"/>
</linearGradient>
<linearGradient id="paint29_linear_6602_25366" x1="3.80664" y1="0" x2="3.80664" y2="10.8662" gradientUnits="userSpaceOnUse">
<stop stop-color="white" stop-opacity="0.8"/>
<stop offset="1" stop-color="white" stop-opacity="0.2"/>
</linearGradient>
<linearGradient id="paint30_linear_6602_25366" x1="7.01562" y1="0" x2="7.01563" y2="20.0283" gradientUnits="userSpaceOnUse">
<stop stop-color="white" stop-opacity="0.8"/>
<stop offset="1" stop-color="white" stop-opacity="0.2"/>
</linearGradient>
<linearGradient id="paint31_linear_6602_25366" x1="3.80615" y1="0" x2="3.80615" y2="10.8672" gradientUnits="userSpaceOnUse">
<stop stop-color="white" stop-opacity="0.8"/>
<stop offset="1" stop-color="white" stop-opacity="0.2"/>
</linearGradient>
<linearGradient id="paint32_linear_6602_25366" x1="7.01514" y1="0" x2="7.01514" y2="20.0273" gradientUnits="userSpaceOnUse">
<stop stop-color="white" stop-opacity="0.8"/>
<stop offset="1" stop-color="white" stop-opacity="0.2"/>
</linearGradient>
<linearGradient id="paint33_linear_6602_25366" x1="3.80713" y1="0" x2="3.80713" y2="10.8662" gradientUnits="userSpaceOnUse">
<stop stop-color="white" stop-opacity="0.8"/>
<stop offset="1" stop-color="white" stop-opacity="0.2"/>
</linearGradient>
</defs>
</svg>
